<?xml version="1.0" encoding="utf-8"?>
<!-- Generator: Adobe Illustrator 25.2.3, SVG Export Plug-In . SVG Version: 6.00 Build 0)  -->
<svg version="1.1" id="Слой_1" xmlns="http://www.w3.org/2000/svg" xmlns:xlink="http://www.w3.org/1999/xlink" x="0px" y="0px"
	 viewBox="0 0 2405.3 1035.4" style="enable-background:new 0 0 2405.3 1035.4;" xml:space="preserve">
<style type="text/css">
	.st0{fill:#5D5B5C;}
	.st1{fill:#0D7590;}
	.st2{enable-background:new    ;}
</style>
<path class="st0" d="M794.4,429.8c2.5,4.1,3.8,9.2,3.8,15.4c0,8.4-2.6,14.9-7.8,19.5c-5.2,4.6-12.7,6.9-22.7,6.9H729v-97.3h36.5
	c9.2,0,16.3,2.2,21.2,6.7c5,4.5,7.4,10.7,7.5,18.6c0.1,4.4-0.8,8.8-2.7,12.8c-1.6,3.5-4.1,6.5-7.3,8.6
	C788.4,422.7,792,425.8,794.4,429.8z M743.5,388.5v26.8h20.5c5,0,8.9-1.1,11.6-3.4s4.1-5.6,4-9.9c0-4.4-1.3-7.8-4-10.1
	s-6.6-3.4-11.6-3.4L743.5,388.5z M783.6,443.4c0-9.3-5.6-14-16.8-14h-23.3v28.1h23.3C778,457.4,783.6,452.7,783.6,443.4L783.6,443.4
	z"/>
<path class="st0" d="M816.4,374.3h14.5v97.3h-14.5V374.3z"/>
<path class="st0" d="M854.6,374.3H869v82h40.7v15.3h-55.1V374.3z"/>
<path class="st0" d="M924,374.3h14.5v97.3H924V374.3z"/>
<path class="st0" d="M1033.7,471.6l-0.1-64.5l-25.6,53.4h-6.5L976,407.9v63.7h-13.8v-97.3h11.9l30.9,64.5l30.3-64.5h11.9l0.1,97.3
	H1033.7z"/>
<path class="st0" d="M1175.7,374.3l-33.9,97.3h-14.2l-34-97.3h15.7l25.9,75.1l26.1-75.1H1175.7z"/>
<path class="st0" d="M1234.7,449.1h-38.9l-7.7,22.5h-14.9l35-97.3h14.2l35.1,97.3h-15.1L1234.7,449.1z M1230,434.9l-14.7-42.5
	l-14.6,42.5H1230z"/>
<path class="st0" d="M1330.6,430.9l-12.3,15.9v24.9h-14.4v-97.3h14.4v49.9l38.5-49.9h16.2l-32.7,43.5l34.7,53.8H1358L1330.6,430.9z"
	/>
<path class="st0" d="M1399.7,466.5c-6.5-4.5-11.7-10.7-15-17.9c-7.3-16.3-7.3-35,0-51.3c3.3-7.2,8.5-13.4,15-17.9
	c13-8.6,29.9-8.6,42.9,0c6.5,4.5,11.7,10.7,15,17.9c7.3,16.4,7.3,35.1,0,51.4c-3.3,7.2-8.5,13.4-15,17.9
	C1429.6,475.1,1412.7,475.1,1399.7,466.5L1399.7,466.5z M1435.1,452.8c4.3-3.1,7.7-7.3,9.8-12.2c4.7-11.2,4.7-23.9,0-35.2
	c-2.1-4.9-5.5-9.1-9.8-12.2c-8.4-5.8-19.6-5.8-28,0c-4.3,3.1-7.7,7.3-9.8,12.2c-4.7,11.2-4.7,23.9,0,35.2c2.1,4.9,5.5,9.1,9.8,12.2
	C1415.6,458.6,1426.7,458.6,1435.1,452.8L1435.1,452.8z"/>
<path class="st0" d="M1490.7,393.7c1,2,1.5,4.2,1.4,6.5c0.1,2.9-0.8,5.8-2.6,8.2c-1.5,2-3.8,3.2-6.3,3.2c-2.6,0.1-5-1.1-6.6-3.2
	c-1.8-2.4-2.7-5.3-2.6-8.2c0-1.6,0.2-3.3,0.5-4.9c0.3-1.6,1-3.9,2-7.1l5.9-19.7h8.9l-4.4,21.3C1488.5,390.6,1489.9,392,1490.7,393.7
	z"/>
<path class="st0" d="M1579.1,374.3v97.3h-11.9l-42.9-65.9v65.9H1510v-97.3h11.9l42.9,65.9v-65.9H1579.1z"/>
<path class="st0" d="M1602.8,374.3h14.4v97.3h-14.4V374.3z"/>
<path class="st0" d="M1667.8,430.9l-12.3,15.9v24.9H1641v-97.3h14.4v49.9l38.5-49.9h16.2l-32.7,43.5l34.7,53.8h-16.9L1667.8,430.9z"
	/>
<path class="st0" d="M1796.3,471.6l-0.1-64.5l-25.6,53.4h-6.4l-25.6-52.5v63.7h-13.8v-97.3h11.9l30.9,64.5l30.3-64.5h11.9l0.1,97.3
	H1796.3z"/>
<path class="st0" d="M1884.2,449.1h-38.9l-7.7,22.5h-14.9l35-97.3h14.3l35.1,97.3H1892L1884.2,449.1z M1879.4,434.9l-14.7-42.5
	l-14.6,42.5H1879.4z"/>
<path class="st0" d="M1919.8,374.3h14.4v82h40.7v15.3h-55.1L1919.8,374.3z"/>
<path class="st0" d="M2040.2,449.1h-38.9l-7.7,22.5h-14.9l35-97.3h14.2l35.1,97.3h-15.1L2040.2,449.1z M2035.4,434.9l-14.7-42.5
	l-14.6,42.5H2035.4z"/>
<path class="st0" d="M2126.6,471.6l-15.9-28.5c-1,0.1-2,0.2-3,0.1h-17.6v28.4h-14.4v-97.3h32c6.1-0.1,12.2,1.3,17.6,4.2
	c5,2.7,9,6.9,11.5,12c2.8,5.8,4.2,12.1,4,18.5c0,7.3-1.4,13.6-4.3,18.9c-2.7,5.2-7,9.3-12.3,11.8l17.9,32L2126.6,471.6z
	 M2121.4,394.6c-3.3-3.3-8-5-14.3-5h-16.9v38.8h16.9c6.3,0,11.1-1.7,14.3-5.1s4.9-8.2,4.9-14.4
	C2126.3,402.7,2124.7,397.9,2121.4,394.6L2121.4,394.6z"/>
<path class="st0" d="M2228.9,374.3v97.3H2217l-42.9-65.9v65.9h-14.3v-97.3h11.9l42.9,65.9v-65.9H2228.9z"/>
<path class="st0" d="M2252.6,374.3h14.4v97.3h-14.4L2252.6,374.3z"/>
<path class="st0" d="M794.4,596.6c2.5,4.1,3.8,9.3,3.8,15.4c0,8.4-2.6,15-7.8,19.5c-5.2,4.6-12.7,6.9-22.7,6.9H729v-97.3h36.5
	c9.2,0,16.3,2.2,21.2,6.7c5,4.5,7.4,10.7,7.5,18.6c0.1,4.4-0.8,8.8-2.7,12.8c-1.6,3.5-4.1,6.5-7.3,8.6
	C788.4,589.6,792,592.7,794.4,596.6z M743.5,555.3v26.8h20.5c5,0,8.9-1.1,11.6-3.4s4.1-5.6,4-9.9c0-4.5-1.3-7.8-4-10.1
	s-6.6-3.4-11.6-3.4L743.5,555.3z M783.6,610.2c0-9.3-5.6-14-16.8-14h-23.3v28.1h23.3C778,624.2,783.6,619.5,783.6,610.2z"/>
<path class="st0" d="M866.8,615.9h-38.9l-7.7,22.5h-14.9l35-97.3h14.2l35.1,97.3h-15.1L866.8,615.9z M862,601.7l-14.7-42.5
	l-14.6,42.5H862z"/>
<path class="st0" d="M971.5,541.1v97.3h-14.5v-41.7h-40.2v41.7h-14.4v-97.3h14.5v40.2h40.2v-40.2H971.5z"/>
<path class="st0" d="M1010.1,633.3c-6.5-4.5-11.7-10.7-15-17.9c-7.3-16.3-7.3-35,0-51.3c3.3-7.2,8.5-13.4,15-17.9
	c13-8.6,29.9-8.6,42.9,0c6.5,4.5,11.7,10.6,15,17.8c7.3,16.4,7.3,35.1,0,51.4c-3.3,7.2-8.5,13.4-15,17.9
	C1040,641.9,1023.1,641.9,1010.1,633.3L1010.1,633.3z M1045.6,619.6c4.3-3.1,7.7-7.3,9.8-12.2c4.7-11.2,4.7-23.9,0-35.2
	c-2.1-4.9-5.5-9.1-9.8-12.2c-8.4-5.8-19.6-5.8-28,0c-4.3,3.1-7.7,7.3-9.8,12.2c-4.7,11.2-4.7,23.9,0,35.2c2.1,4.9,5.5,9.1,9.8,12.2
	C1026,625.4,1037.1,625.4,1045.6,619.6z"/>
<path class="st0" d="M1091.6,541.1h14.4v82h40.7v15.3h-55.1L1091.6,541.1z"/>
<path class="st0" d="M1212,615.9h-38.9l-7.7,22.5h-14.9l35-97.3h14.2l35.1,97.3h-15.1L1212,615.9z M1207.2,601.7l-14.7-42.5
	l-14.5,42.5H1207.2z"/>
<path class="st0" d="M1254.3,636.6c-5-1.8-9.6-4.7-13.3-8.5l5-14c3.4,3.3,7.4,5.9,11.7,7.7c4.4,2,9.2,3,14,3
	c5.8,0,10.1-1.2,12.9-3.5c2.8-2.2,4.4-5.6,4.3-9.2c0.1-2.5-0.8-5-2.4-6.9c-1.7-1.9-3.7-3.3-6.1-4.2c-2.4-1-5.8-2.2-10-3.5
	c-4.9-1.4-9.7-3.1-14.4-5.3c-3.8-1.9-7.1-4.7-9.4-8.3c-2.6-3.7-3.9-8.8-3.9-15.2c-0.1-5.1,1.1-10.1,3.5-14.7
	c2.4-4.5,6.1-8.1,10.6-10.5c4.7-2.6,10.4-3.9,17.3-3.9c4.8,0,9.5,0.8,14,2.2c4.3,1.3,8.4,3.5,11.9,6.4l-4.6,14
	c-3.3-2.4-6.8-4.3-10.7-5.7c-3.5-1.3-7.1-1.9-10.8-2c-5.7,0-10,1.2-12.7,3.6c-2.8,2.4-4.3,5.9-4.2,9.6c-0.1,2.5,0.7,4.9,2.4,6.8
	c1.7,1.8,3.7,3.2,6.1,4.2c2.4,1,5.8,2.2,10,3.5c4.9,1.3,9.6,3.1,14.2,5.2c3.8,1.9,7.1,4.7,9.5,8.3c2.6,3.7,3.9,8.7,3.9,15
	c0.1,5.1-1.1,10.1-3.5,14.6c-2.4,4.5-6.1,8.1-10.6,10.4c-4.7,2.6-10.5,3.9-17.3,3.9C1265.7,639.8,1259.8,638.7,1254.3,636.6z"/>
<path class="st0" d="M1389.4,541.1v97.3h-14.4v-41.7h-40.2v41.7h-14.4v-97.3h14.4v40.2h40.2v-40.2H1389.4z"/>
<path class="st0" d="M1518,638.4l-0.1-64.5l-25.6,53.4h-6.4l-25.6-52.5v63.7h-13.8v-97.3h11.9l30.9,64.5l30.3-64.5h11.9l0.1,97.3
	L1518,638.4z"/>
<path class="st0" d="M1605.9,615.9H1567l-7.7,22.5h-14.9l35-97.3h14.2l35.1,97.3h-15.1L1605.9,615.9z M1601.1,601.7l-14.7-42.5
	l-14.6,42.5H1601.1z"/>
<path class="st0" d="M1692.4,638.4l-15.9-28.5c-1,0.1-2,0.2-3,0.1h-17.6v28.3h-14.4v-97.3h32c6.1-0.1,12.2,1.3,17.6,4.2
	c5,2.7,9,6.9,11.5,12c2.8,5.8,4.2,12.1,4,18.5c0,7.3-1.4,13.6-4.3,18.9c-2.7,5.1-7,9.3-12.3,11.8l17.9,32L1692.4,638.4z
	 M1687.1,561.4c-3.3-3.3-8-5-14.3-5h-16.9v38.8h16.9c6.3,0,11.1-1.7,14.3-5.1s4.9-8.2,4.9-14.4
	C1692,569.5,1690.4,564.7,1687.1,561.4L1687.1,561.4z"/>
<path class="st0" d="M1752.3,597.7l-12.3,15.8v24.9h-14.4v-97.3h14.4V591l38.5-49.9h16.2l-32.7,43.5l34.7,53.8h-16.9L1752.3,597.7z"
	/>
<path class="st0" d="M1856.4,615.9h-38.9l-7.7,22.5H1795l35-97.3h14.2l35.1,97.3h-15.2L1856.4,615.9z M1851.6,601.7l-14.6-42.5
	l-14.6,42.5L1851.6,601.7z"/>
<path class="st0" d="M1952.5,623.1v15.3h-66.4v-12.1l45.8-69.9h-45v-15.3h64.1v12.1l-45.8,69.9H1952.5z"/>
<path class="st0" d="M1968.5,541.1h14.4v97.3h-14.4V541.1z"/>
<path class="st1" d="M589.1,688.4C259.3,532.7,312.7,296.5,312.7,296.5L412.8,376c29,225,183.4,292.8,188.2,294.9
	C272.4,370.5,547.9,86.5,547.9,86.5l51,164.3c-128,308.9,24.8,411.4,28.3,413.6C462.8,302,776.3,101.7,776.3,101.7v189.4
	C551,463.1,647.9,708,647.9,708c-425.6-9.8-448.4-261.3-448.4-261.3L321.3,485C425.9,689.8,589.1,688.4,589.1,688.4z"/>
<path class="st1" d="M1142,802.6c-86.3,7.1-249,50.5-307.8,66.8c-12.9,3.6-26.7,0.5-36.8-8.2c-74.9-65.4-135.5-11-156,12.5
	c-4.7,5.4-12.4,7.2-19,4.4c-236.3-102.4-492.5,5.2-492.5,5.2c19.6-24,29.4-151.3,29.4-151.3c392.5-92.5,492.8,58.3,495.2,62
	c-223.1-106.6-442.9-25-442.9-25l-11.9,52.3c220.9-61.6,371-7.2,415.3,12.9c7.9,3.6,17.2,1.6,22.9-5c74.7-87.6,148.2-30.2,175-3.3
	c7,7,17.3,9.7,26.8,6.9C1064.1,766.3,1142,802.6,1142,802.6z"/>
<g class="st2">
	<path class="st1" d="M760.9,740.1h-22.6l-4.5,10.5h-8.7l20.3-45.2h8.3l20.4,45.2h-8.8L760.9,740.1z M758.2,733.6l-8.5-19.8
		l-8.5,19.8H758.2z"/>
	<path class="st1" d="M783.9,749.8c-3.3-1-5.8-2.3-7.7-3.9l2.9-6.5c1.9,1.5,4.1,2.7,6.8,3.6c2.7,0.9,5.4,1.4,8.1,1.4
		c3.4,0,5.9-0.5,7.5-1.6c1.7-1.1,2.5-2.5,2.5-4.3c0-1.3-0.5-2.4-1.4-3.2c-0.9-0.8-2.1-1.5-3.5-2c-1.4-0.5-3.4-1-5.8-1.6
		c-3.4-0.8-6.2-1.6-8.4-2.5c-2.1-0.8-4-2.1-5.5-3.8c-1.5-1.7-2.3-4.1-2.3-7.1c0-2.5,0.7-4.8,2-6.8c1.4-2,3.4-3.7,6.1-4.9
		c2.7-1.2,6.1-1.8,10-1.8c2.8,0,5.5,0.3,8.1,1c2.7,0.7,5,1.7,6.9,3l-2.6,6.5c-2-1.2-4-2-6.2-2.6c-2.2-0.6-4.2-0.9-6.3-0.9
		c-3.3,0-5.8,0.6-7.4,1.7c-1.6,1.1-2.4,2.6-2.4,4.5c0,1.3,0.5,2.3,1.4,3.2c0.9,0.8,2.1,1.5,3.5,1.9c1.4,0.5,3.4,1,5.8,1.6
		c3.4,0.8,6.1,1.6,8.3,2.4c2.2,0.8,4,2.1,5.5,3.8c1.5,1.7,2.3,4,2.3,7c0,2.5-0.7,4.8-2,6.8c-1.4,2-3.4,3.6-6.2,4.8
		c-2.8,1.2-6.1,1.8-10.1,1.8C790.5,751.2,787.1,750.8,783.9,749.8z"/>
	<path class="st1" d="M824.5,749.8c-3.3-1-5.8-2.3-7.7-3.9l2.9-6.5c1.9,1.5,4.1,2.7,6.8,3.6c2.7,0.9,5.4,1.4,8.1,1.4
		c3.4,0,5.9-0.5,7.5-1.6c1.7-1.1,2.5-2.5,2.5-4.3c0-1.3-0.5-2.4-1.4-3.2c-0.9-0.8-2.1-1.5-3.5-2c-1.4-0.5-3.4-1-5.8-1.6
		c-3.4-0.8-6.2-1.6-8.4-2.5c-2.1-0.8-4-2.1-5.5-3.8c-1.5-1.7-2.3-4.1-2.3-7.1c0-2.5,0.7-4.8,2-6.8c1.4-2,3.4-3.7,6.1-4.9
		c2.7-1.2,6.1-1.8,10-1.8c2.8,0,5.5,0.3,8.1,1c2.7,0.7,5,1.7,6.9,3l-2.6,6.5c-2-1.2-4-2-6.2-2.6c-2.2-0.6-4.2-0.9-6.3-0.9
		c-3.3,0-5.8,0.6-7.4,1.7c-1.6,1.1-2.4,2.6-2.4,4.5c0,1.3,0.5,2.3,1.4,3.2c0.9,0.8,2.1,1.5,3.5,1.9c1.4,0.5,3.4,1,5.8,1.6
		c3.4,0.8,6.1,1.6,8.3,2.4c2.2,0.8,4,2.1,5.5,3.8c1.5,1.7,2.3,4,2.3,7c0,2.5-0.7,4.8-2,6.8c-1.4,2-3.4,3.6-6.2,4.8
		c-2.8,1.2-6.1,1.8-10.1,1.8C831.1,751.2,827.8,750.8,824.5,749.8z"/>
	<path class="st1" d="M895.1,743.6v7h-33.9v-45.2h33v7h-24.6v11.8h21.8v6.9h-21.8v12.5H895.1z"/>
	<path class="st1" d="M908.4,749.8c-3.3-1-5.8-2.3-7.7-3.9l2.9-6.5c1.9,1.5,4.1,2.7,6.8,3.6c2.7,0.9,5.4,1.4,8.1,1.4
		c3.4,0,5.9-0.5,7.5-1.6c1.7-1.1,2.5-2.5,2.5-4.3c0-1.3-0.5-2.4-1.4-3.2c-0.9-0.8-2.1-1.5-3.5-2c-1.4-0.5-3.4-1-5.8-1.6
		c-3.4-0.8-6.2-1.6-8.4-2.5c-2.1-0.8-4-2.1-5.5-3.8c-1.5-1.7-2.3-4.1-2.3-7.1c0-2.5,0.7-4.8,2-6.8c1.4-2,3.4-3.7,6.1-4.9
		c2.7-1.2,6.1-1.8,10-1.8c2.8,0,5.5,0.3,8.1,1c2.7,0.7,5,1.7,6.9,3l-2.6,6.5c-2-1.2-4-2-6.2-2.6c-2.2-0.6-4.2-0.9-6.3-0.9
		c-3.3,0-5.8,0.6-7.4,1.7c-1.6,1.1-2.4,2.6-2.4,4.5c0,1.3,0.5,2.3,1.4,3.2c0.9,0.8,2.1,1.5,3.5,1.9c1.4,0.5,3.4,1,5.8,1.6
		c3.4,0.8,6.1,1.6,8.3,2.4c2.2,0.8,4,2.1,5.5,3.8c1.5,1.7,2.3,4,2.3,7c0,2.5-0.7,4.8-2,6.8c-1.4,2-3.4,3.6-6.2,4.8
		c-2.8,1.2-6.1,1.8-10.1,1.8C915,751.2,911.6,750.8,908.4,749.8z"/>
	<path class="st1" d="M949,749.8c-3.3-1-5.8-2.3-7.7-3.9l2.9-6.5c1.9,1.5,4.1,2.7,6.8,3.6c2.7,0.9,5.4,1.4,8.1,1.4
		c3.4,0,5.9-0.5,7.5-1.6c1.7-1.1,2.5-2.5,2.5-4.3c0-1.3-0.5-2.4-1.4-3.2c-0.9-0.8-2.1-1.5-3.5-2c-1.4-0.5-3.4-1-5.8-1.6
		c-3.4-0.8-6.2-1.6-8.4-2.5c-2.1-0.8-4-2.1-5.5-3.8c-1.5-1.7-2.3-4.1-2.3-7.1c0-2.5,0.7-4.8,2-6.8c1.4-2,3.4-3.7,6.1-4.9
		c2.7-1.2,6.1-1.8,10-1.8c2.8,0,5.5,0.3,8.1,1c2.7,0.7,5,1.7,6.9,3l-2.6,6.5c-2-1.2-4-2-6.2-2.6c-2.2-0.6-4.2-0.9-6.3-0.9
		c-3.3,0-5.8,0.6-7.4,1.7c-1.6,1.1-2.4,2.6-2.4,4.5c0,1.3,0.5,2.3,1.4,3.2c0.9,0.8,2.1,1.5,3.5,1.9c1.4,0.5,3.4,1,5.8,1.6
		c3.4,0.8,6.1,1.6,8.3,2.4c2.2,0.8,4,2.1,5.5,3.8c1.5,1.7,2.3,4,2.3,7c0,2.5-0.7,4.8-2,6.8c-1.4,2-3.4,3.6-6.2,4.8
		c-2.8,1.2-6.1,1.8-10.1,1.8C955.6,751.2,952.3,750.8,949,749.8z"/>
	<path class="st1" d="M1027.3,750.6l-0.1-30l-14.9,24.8h-3.7L993.7,721v29.6h-8v-45.2h6.9l18,30l17.6-30h6.9l0.1,45.2H1027.3z"/>
	<path class="st1" d="M1081.3,743.6v7h-33.9v-45.2h33v7h-24.6v11.8h21.8v6.9h-21.8v12.5H1081.3z"/>
	<path class="st1" d="M1130.8,705.4v45.2h-6.9L1099,720v30.6h-8.3v-45.2h6.9l24.9,30.6v-30.6H1130.8z"/>
	<path class="st1" d="M1152.2,712.5h-15v-7.1h38.4v7.1h-15v38.1h-8.4V712.5z"/>
	<path class="st1" d="M1208.2,748.2c-3.7-2-6.6-4.8-8.7-8.3c-2.1-3.5-3.1-7.5-3.1-11.9s1.1-8.4,3.2-11.9c2.1-3.5,5-6.3,8.7-8.3
		c3.7-2,7.8-3,12.4-3c3.7,0,7.1,0.6,10.1,1.9c3.1,1.3,5.6,3.2,7.8,5.6l-5.4,5.1c-3.3-3.5-7.3-5.3-12.1-5.3c-3.1,0-5.9,0.7-8.3,2
		c-2.5,1.4-4.4,3.2-5.7,5.7c-1.4,2.4-2.1,5.1-2.1,8.2s0.7,5.8,2.1,8.2c1.4,2.4,3.3,4.3,5.7,5.7c2.5,1.4,5.2,2,8.3,2
		c4.8,0,8.8-1.8,12.1-5.4l5.4,5.2c-2.1,2.5-4.7,4.3-7.8,5.6c-3.1,1.3-6.5,1.9-10.2,1.9C1216,751.2,1211.9,750.2,1208.2,748.2z"/>
	<path class="st1" d="M1280.5,743.6v7h-33.9v-45.2h33v7H1255v11.8h21.8v6.9H1255v12.5H1280.5z"/>
	<path class="st1" d="M1330.1,705.4v45.2h-6.9l-24.9-30.6v30.6h-8.3v-45.2h6.9l24.9,30.6v-30.6H1330.1z"/>
	<path class="st1" d="M1351.4,712.5h-15v-7.1h38.4v7.1h-15v38.1h-8.4V712.5z"/>
	<path class="st1" d="M1410.7,750.6l-9.2-13.2c-0.4,0-1,0.1-1.7,0.1h-10.2v13.2h-8.4v-45.2h18.6c3.9,0,7.3,0.6,10.2,1.9
		s5.1,3.1,6.7,5.6c1.6,2.4,2.3,5.3,2.3,8.6c0,3.4-0.8,6.3-2.5,8.8c-1.7,2.5-4,4.3-7.1,5.5l10.4,14.9H1410.7z M1407.6,714.8
		c-1.9-1.5-4.7-2.3-8.3-2.3h-9.8v18h9.8c3.7,0,6.4-0.8,8.3-2.4c1.9-1.6,2.8-3.8,2.8-6.7C1410.5,718.6,1409.5,716.4,1407.6,714.8z"/>
	<path class="st1" d="M1462.2,743.6v7h-33.9v-45.2h33v7h-24.6v11.8h21.8v6.9h-21.8v12.5H1462.2z"/>
</g>
</svg>
